# xmcd
#
# Track frame offsets:
#	150
#	8961
#	19087
#	32963
#	45826
#	55989
#	67613
#	77237
#	88636
#
# Disc length: 1375 seconds
#
# Revision: 0
# Processed by: cddbd v1.4PL0 Copyright (c) Steve Scherf et al.
# Submitted via: dBpowerAMP V4.0
#
DISCID=62055d09
DTITLE=Bo Diddley - Bo Knows Bo
DYEAR=1900
DGENRE=Blues
TTITLE0=Gun Slinger
TTITLE1=Hey Bo Diddley
TTITLE2=Doing The Crawdaddy
TTITLE3=Roadrunner
TTITLE4=Diddling
TTITLE5=Diddy Wah Diddy
TTITLE6=Crackin' Up
TTITLE7=Who Do You Love
TTITLE8=You Can't Judge A Book By Its Cover
EXTD=Bo Diddley\n
EXTT0=
EXTT1=
EXTT2=
EXTT3=
EXTT4=
EXTT5=
EXTT6=
EXTT7=
EXTT8=
PLAYORDER=
